<svg xmlns="http://www.w3.org/2000/svg" xmlns:xlink="http://www.w3.org/1999/xlink"
  viewBox="0 0 400 400">
  <defs>
    <style>.cls-1{fill:none;}.cls-2{clip-path:url(#clip-path);}.cls-3{fill:#fff;}</style>
    <clipPath id="clip-path">
      <rect class="cls-1" x="5.2" y="5.37" width="389.54" height="390" />
    </clipPath>
  </defs>
  <title>Artboard 1</title>
  <g id="Affordability">
    <g class="cls-2">
      <path class="cls-3"
        d="M346.91,88.31l-.69.32c-7.46,3.68-15.34,5.76-22.06,7.28-18.24,4.1-38,5.85-62.14,5.57a296.66,296.66,0,0,1-37.4-3c-1-.14-2-.37-3-.6V71.36l1.47-.28c2.31-.37,4.75-.83,7.1-1.11A304.49,304.49,0,0,1,290.4,68.5c16.85,1.2,30.3,3.59,42.37,7.42a134.6,134.6,0,0,1,14.28,5.85l.83.36c1.66.79,2.95,1.57,3.59,2.81-.92,1.57-2.62,2.4-4.56,3.37m-25.56,32.33c4.83-1.06,9.39-2.07,13.86-3.41s9-3,13.41-4.6c1-.33,1.93-.69,2.85-1.06v33.12a149.55,149.55,0,0,0-31.14-23.82c.33-.09.7-.14,1-.23m49.56,128A123.07,123.07,0,0,1,248,371h-.32a122.82,122.82,0,0,1,.46-245.64h.09A123.07,123.07,0,0,1,370.91,248.65M29,251.73V246a203,203,0,0,0,72.59,14.09,155.47,155.47,0,0,0,7,33.91c-19.76-.33-42.74-1.85-65.41-9.77a75.86,75.86,0,0,1-9.81-4.61c-.69-.32-1.38-.69-2-1.05-1.8-.93-2.49-2.26-2.44-4.56.13-7.37.13-14.61.09-22.3M29,78.5c0-1.89,0-3.83,0-5.76.32.14.64.23,1,.37A211.3,211.3,0,0,0,107.9,86.92c2,0,4-.09,6-.09,8.39-.14,17-.23,25.61-.78,18.38-1.24,36.76-5.34,56.2-12.62l1.93-.69v9.12c0,6.12-.09,12.48.1,18.74.09,2.49-.65,3.87-2.63,5a83.58,83.58,0,0,1-8.2,4.1c-11.88,5-24.55,7.18-34.31,8.57a269.26,269.26,0,0,1-43.21,2.62c-17.82-.37-38.83-1.56-59.51-7.78a136.33,136.33,0,0,1-14.37-5.58L33,106.41c-3.09-1.29-4.29-3.32-4.15-7,.28-6.91.23-13.73.18-20.91M191.09,50,191,50A100.4,100.4,0,0,1,166.31,58a262.38,262.38,0,0,1-64.86,4.88C87,62.19,70,60.9,53,56.2a162.88,162.88,0,0,1-16.26-5.89c-1-.42-1.93-.79-2.9-1.16a10,10,0,0,1-4.38-3.08,14.46,14.46,0,0,1,4.7-3.23l.51-.27c6.54-3.36,14-5.9,23.67-8C81,29.67,105,28.06,131.67,29.67c17.55,1.06,30.81,3.09,43,6.63a151.33,151.33,0,0,1,17.41,6.45,20.94,20.94,0,0,1,4.42,2.81l.56.42a17.65,17.65,0,0,1-6,4M37.57,166.2c-1-.42-2-.83-3-1.2A15,15,0,0,1,30,162a3.09,3.09,0,0,1-.92-1.75C29,151.87,29,143.35,29,135.1v-4.32c2.12.64,4.19,1.28,6.26,1.93,6.77,2.12,13.18,4.1,19.81,5.85a192.88,192.88,0,0,0,46.38,6.08,380.8,380.8,0,0,0,44.87-1.75,148.54,148.54,0,0,0-26,33.9c-.92,1.66-1.24,1.89-2.39,1.93-19.72-.13-42.89-1.05-65-7.09a144.1,144.1,0,0,1-15.33-5.43M29,193.88v-5.67a214.14,214.14,0,0,0,79.87,14.14,146.53,146.53,0,0,0-7.28,33.81c-.69,0-1.38,0-2.07-.09-2.86-.09-5.58-.18-8.25-.41-14.41-1.11-31.37-3-47.95-8.94A87.35,87.35,0,0,1,33,221.84c-.79-.42-1.57-.83-2.31-1.25-1.7-.87-1.7-1.84-1.7-2.25V193.88m0,115.34v-5.58c28.65,11.06,58.17,15.62,90,14a153.84,153.84,0,0,0,23.86,32.51c-.14,0-.23,0-.37,0-3.22.37-6,.65-8.8.88a286,286,0,0,1-58.91-1.8c-14.6-2-25.42-4.7-35.14-8.75a73.71,73.71,0,0,1-8.89-4.75l-.32-.18A2.57,2.57,0,0,1,29,333.12c.05-7.83.05-15.61.05-23.9M376.85,178.49a12.53,12.53,0,0,1-1.47-6.21V142.2c0-18.06-.05-36.76.09-55.14A25.38,25.38,0,0,0,366,66.43c-6.5-5.58-14-8.8-19.9-11-10.83-4.05-23.08-7-38.55-9a297.39,297.39,0,0,0-41.23-2.58A276.43,276.43,0,0,0,223.79,47a18,18,0,0,1-2.35.23c0-.46-.09-.92-.09-1.34,0-5.29-1.89-10-5.85-14.55A44.67,44.67,0,0,0,201.91,21.2c-11.93-6.08-24.64-9.08-34.36-11-22-4.29-45.78-5.71-72.82-4.29C72,7.1,53.92,10.23,37.89,15.81a91.92,91.92,0,0,0-16.35,7.37,52.52,52.52,0,0,0-10.83,8.89A19,19,0,0,0,5.32,46v66.6c0,71.72,0,145.88-.14,218.84,0,10.32,3.92,17.92,12.44,23.9,9.86,7,20.91,10.41,30.45,12.85,12.71,3.27,26.39,5.35,43.06,6.59a280.37,280.37,0,0,0,46.3-.23c8.66-.83,17.31-2.12,25.74-3.41l2.08-.27a4.87,4.87,0,0,1,3.87.73A144,144,0,0,0,226,393.23c3.27.51,6.59.78,9.81,1l5.07.42c1.06.14,2.12.28,3.22.46.51.09,1,.14,1.52.23h6.08l1.71-.28a31.44,31.44,0,0,1,3.31-.41c65.41-3.18,122.2-52.19,135-116.49,7-35,1.94-68.54-14.83-99.68" />
      <path class="cls-3"
        d="M236,197.08v36.16l-.79-.32a31.72,31.72,0,0,1-5.11-2.39c-6.73-4.29-9.72-10.28-8.43-16.86,1.61-8.06,7.42-14.74,14.33-16.59m24.09,65.09c.13.05.23.05.36.09,8.53,3.36,13.13,9.4,14.14,18.33a11,11,0,0,1-1.42,6.87,22.39,22.39,0,0,1-13.08,10.82Zm3.13-25c-1-.23-2-.46-3-.64V197.32a22.36,22.36,0,0,1,13.91,12.94,14.42,14.42,0,0,1,.6,1.56,21.07,21.07,0,0,0,.88,2.35,12.08,12.08,0,0,0,22.2-9.49c-5.8-15.52-16.95-25.7-33.16-30.21-1.43-.42-2.91-.74-4.29-1-.09,0-.18-.05-.27-.05-1.16-7.65-3.64-14.28-12-14a16.08,16.08,0,0,0-7.37,2.63c-4.15,2.71-4.38,7-4.56,10.5a4.57,4.57,0,0,0,0,.83,2.22,2.22,0,0,0-.6.09c-18.56,3.87-30.76,15-36.29,33.21a34.26,34.26,0,0,0,1.43,24.46c6.44,14.55,17.5,24,32.88,28l2.54.69c.64,10.23.37,32.1-.28,39.43a22.19,22.19,0,0,1-13.91-13c-.18-.46-.37-1-.55-1.47a13.41,13.41,0,0,0-.92-2.4,12,12,0,0,0-13.91-6.44,11.78,11.78,0,0,0-8.94,12.34,15.6,15.6,0,0,0,1.2,5.07c6.49,15.43,18,25.19,34.22,29,1.06.23,2.07.46,3.09.73,1.15,8.43,3.68,13.64,11.56,13.87h.41a12,12,0,0,0,7.74-2.81c3.87-3.23,4.1-7.6,4.24-11.2l1.47-.36.88-.19c16.63-3.78,28.33-13.73,34.77-29.62a30.3,30.3,0,0,0,2.17-13.81c-1.66-20.59-15.8-37-36.11-41.74" />
    </g>
  </g>
</svg>